<svg xmlns="http://www.w3.org/2000/svg" width="800px" height="auto" viewBox="0 0 1229.915 1332.118">
  <path id="blob_2_" data-name="blob (2)" d="M731.76-37.469c94.217,23.447,192.306,80.685,244.577,170.334s58.079,211.021,7.744,297.912c-49.69,86.2-156.813,137.922-232.961,197.229-76.793,59.307-123.9,126.2-193.6,179.989-69.695,54.479-162.621,95.166-234.9,68.961S198.078,758.343,118.7,679.727-67.15,537.667-81.992,456.293C-97.48,375.609-20.686,277.684,36.747,182.517,94.826,87.351,133.546-5.747,200.659-42.3s161.976-16.551,254.9-11.723C547.843-49.882,637.543-60.226,731.76-37.469Z" transform="matrix(-0.292, -0.956, 0.956, -0.292, 358.917, 1233.116)" fill="#e6cced"/>
</svg>
