<svg xmlns="http://www.w3.org/2000/svg" width="auto" height="600px" viewBox="0 0 912.638 905.279">
  <path id="blob_1_" data-name="blob (1)" d="M410.345-14.47c68.735,18.388,158.486,39.4,192.634,91.064S616.114,211,583.716,283.238s-76.178,134.406-134.406,183c-57.79,48.6-130.466,83.621-194.823,72.238S134.09,469.3,71.922,422.022C9.315,374.739-58.982,337.963-70.8,286.3c-12.259-51.223,32.4-117.77,69.173-173.371,36.338-55.6,64.8-100.7,105.073-128.715C143.284-43.8,194.507-55.186,244.417-53,293.889-50.37,341.61-33.3,410.345-14.47Z" transform="translate(89.793 454.746) rotate(-42)" fill="#51afaf"/>
</svg>
